<svg width="50.000000" height="50.000000" viewBox="0 0 50 50" fill="none" xmlns="http://www.w3.org/2000/svg" xmlns:xlink="http://www.w3.org/1999/xlink">
	<desc>
			Created with Pixso.
	</desc>
	<defs/>
	<path id="Эллипс 1" d="M25 0C38.7946 0 50 11.2054 50 25C50 38.7946 38.7946 50 25 50C11.2054 50 0 38.7946 0 25C0 11.2054 11.2054 0 25 0ZM32.5 35.5L30 33L27 36L27 27L36 27L33 30L35.5 32.5L43 25L35.5 17.5L33 20L36 23L27 23L27 14L30 17L32.5 14.5L25 7L17.5 14.5L20 17L23 14L23 23L14 23L17 20L14.5 17.5L7 25L14.5 32.5L17 30L14 27L23 27L23 36L20 33L17.5 35.5L25 43L32.5 35.5Z" fill="#F86857" fill-opacity="1.000000" fill-rule="evenodd"/>
</svg>
