<svg width="50.000000" height="50.000000" viewBox="0 0 50 50" fill="none" xmlns="http://www.w3.org/2000/svg" xmlns:xlink="http://www.w3.org/1999/xlink">
	<desc>
			Created with Pixso.
	</desc>
	<defs/>
	<path id="Эллипс 2" d="M25 0C38.7946 0 50 11.2054 50 25C50 38.7946 38.7946 50 25 50C11.2054 50 0 38.7946 0 25C0 11.2054 11.2054 0 25 0ZM27.8196 28.0115C27.8196 24.5082 27.8009 21.6451 27.8009 21.6451C28.3462 21.467 29.6234 21.0458 30.7843 20.6927C31.3562 20.4534 32.3802 20.3536 33.4441 19.4826C34.7208 18.3921 35.0665 17.0289 35.0665 17.0289C35.4389 15.473 35.2594 15.6259 35.3071 12.9934C35.4256 12.228 35.0998 10.4128 32.9919 11.1974C30.5244 11.8712 24.9877 12.303 24.1018 17.0289C24.0311 19.0635 24.066 20.3907 24.0592 22.2422C24.0543 23.5775 24.0526 25.3032 24.0526 27.6077C16.5224 28.1046 15.9907 33.688 15.9907 34.0363C15.8555 37.1959 18.625 39.016 20.0053 39.016C21.6736 39.3714 24.6501 38.4694 26.4902 35.7274C28.0017 33.2281 27.8196 31.5147 27.8196 28.0115Z" fill="#F86857" fill-opacity="1.000000" fill-rule="evenodd"/>
</svg>
