<svg width="50.000000" height="50.000000" viewBox="0 0 50 50" fill="none" xmlns="http://www.w3.org/2000/svg" xmlns:xlink="http://www.w3.org/1999/xlink">
	<desc>
			Created with Pixso.
	</desc>
	<defs/>
	<path id="Форма 1" d="M25 0C38.7946 0 50 11.2054 50 25C50 38.7946 38.7946 50 25 50C11.2054 50 0 38.7946 0 25C0 11.2054 11.2054 0 25 0ZM38.9979 31.5461C39.5862 30.993 39.969 30.2898 40 29.5L40 13C40 11.6272 38.9949 10 37 10L13 10C11 10 10 11.5 10 13L10 37C10 39 11.5 40 13 40L29.5 40C30.1957 40 31.1606 39.4841 31.5238 39.031L38.9979 31.5461ZM13.5 13.5L36.5 13.5L36.5 27.5L29.5 27.5C28.3954 27.5 27.5 28.3954 27.5 29.5L27.5 36.5L13.5 36.5L13.5 13.5ZM34.5 31L31 31L31 34.5L34.5 31Z" fill="#FF6A59" fill-opacity="1.000000" fill-rule="evenodd"/>
</svg>
