<svg width="49.979912" height="50.000000" viewBox="0 0 49.9799 50" fill="none" xmlns="http://www.w3.org/2000/svg" xmlns:xlink="http://www.w3.org/1999/xlink">
	<desc>
			Created with Pixso.
	</desc>
	<defs/>
	<path id="path" d="M25.2043 0L24.7969 0C18.2208 0 11.914 2.6122 7.26372 7.26199C2.61286 11.9124 0 18.22 0 24.7969L0 25.1817C0 31.757 2.60926 38.0635 7.25489 42.7167C11.9104 47.3797 18.2291 50 24.8183 50L25.183 50C31.7591 50 38.0659 47.3878 42.7162 42.738C47.3671 38.0876 49.9799 31.78 49.9799 25.2031L49.9799 24.7756C49.9799 18.2117 47.3752 11.916 42.7375 7.27084C38.0901 2.61581 31.7822 0 25.2043 0ZM25.0025 41.45C17.0767 41.45 10.626 35 10.626 27.075C10.626 19.7816 16.0823 13.7641 23.1148 12.8196C23.6812 12.7436 23.9751 12.0582 23.6023 11.625C22.9273 10.85 23.0023 9.64999 23.7773 8.97501C24.5524 8.3 25.7525 8.375 26.4276 9.14999L30.578 13.9C30.678 14.05 30.903 14.375 30.953 14.55C30.978 14.65 31.003 14.75 31.028 14.85C31.0781 15.075 31.0531 15.325 31.003 15.55C30.953 15.75 30.878 15.95 30.778 16.15C30.678 16.3 30.428 16.575 30.278 16.675L25.4025 20.25C24.5524 20.85 23.4023 20.675 22.7772 19.85C22.1772 19.025 22.3522 17.85 23.1773 17.225C23.4728 17.0088 23.3035 16.5725 22.9441 16.6425C18.0528 17.595 14.3514 21.9096 14.3514 27.075C14.3514 32.925 19.1269 37.7 24.9775 37.7C30.828 37.7 35.6035 32.925 35.6035 27.075C35.6035 24.975 34.9784 22.925 33.8283 21.175C33.2533 20.325 33.4783 19.15 34.3534 18.575C35.2285 18 36.3786 18.225 36.9536 19.1C38.5288 21.475 39.3789 24.225 39.3789 27.075C39.3789 35 32.9282 41.45 25.0025 41.45Z" fill="#FF6A59" fill-opacity="1.000000" fill-rule="nonzero"/>
</svg>
