 <svg
          
          xmlns="http://www.w3.org/2000/svg"
          width="50"
          height="50"
          viewBox="0 0 50 50"
          fill="none"
        >
          <g clip-path="url(#clip0_134_2)">
            <path
              d="M24.6677 0C11.6642 0 1.01164 10.1182 0 22.9757L13.2671 28.5112C14.391 27.7347 15.7499 27.2823 17.2104 27.2823C17.3422 27.2823 17.4722 27.2858 17.6004 27.293L23.5011 18.6619V18.5408C23.5011 13.3473 27.6884 9.12081 32.8356 9.12081C37.9829 9.12081 42.1702 13.3473 42.1702 18.5408C42.1702 23.7344 37.9829 27.9626 32.8356 27.9626C32.7644 27.9626 32.6949 27.9609 32.6237 27.9591L24.2082 34.0165C24.2135 34.1287 24.2171 34.2409 24.2171 34.3513C24.2171 38.2518 21.0735 41.4239 17.2104 41.4239C13.8192 41.4239 10.982 38.9803 10.3408 35.7459L0.851347 31.7866C3.7901 42.2717 13.3366 49.9587 24.6677 49.9587C38.3391 49.9587 49.4208 38.7737 49.4208 24.9794C49.4208 11.1833 38.3391 0 24.6677 0ZM15.512 37.902L12.4717 36.6339C13.0096 37.7667 13.9428 38.7142 15.1807 39.2343C17.8558 40.3599 20.9406 39.0793 22.0556 36.3774C22.5952 35.0701 22.5988 33.6275 22.0645 32.3166C21.5302 31.0058 20.5203 29.9834 19.2255 29.4384C17.9378 28.8988 16.5592 28.9184 15.3481 29.3797L18.4899 30.6905C20.4633 31.5205 21.3966 33.8074 20.5737 35.7986C19.7527 37.7898 17.4854 38.732 15.512 37.902ZM39.0558 18.541C39.0558 15.0804 36.2649 12.2628 32.8363 12.2628C29.406 12.2628 26.6151 15.0804 26.6151 18.541C26.6151 22.0016 29.406 24.8175 32.8363 24.8175C36.2649 24.8175 39.0558 22.0016 39.0558 18.541ZM28.1735 18.5303C28.1735 15.9264 30.2663 13.8159 32.8452 13.8159C35.426 13.8159 37.5187 15.9264 37.5187 18.5303C37.5187 21.1342 35.426 23.2448 32.8452 23.2448C30.2663 23.2448 28.1735 21.1342 28.1735 18.5303Z"
              fill="#F06655"
              stroke="#F06655"
              stroke-width="0.00064"
            />
          </g>
          <defs>
            <clipPath id="clip0_134_2">
              <rect width="50" height="50" fill="white" />
            </clipPath>
          </defs>
        </svg>